<svg width="86" height="85" viewBox="0 0 86 85" fill="none" xmlns="http://www.w3.org/2000/svg">
<ellipse cx="43" cy="42.5" rx="43" ry="42.5" fill="#5AA4B0"/>
<path d="M58.406 48.7859L44.4061 31.7235C44.0107 31.241 43.542 31 43 31C42.458 31 41.9894 31.241 41.5935 31.7235L27.5937 48.7859C27.1978 49.2679 27 49.8394 27 50.4995C27 51.1595 27.1978 51.7311 27.5937 52.2132C27.99 52.6957 28.4586 52.9373 29.0002 52.9373H56.9997C57.5414 52.9373 58.0103 52.6957 58.406 52.2132C58.8015 51.7312 59 51.1596 59 50.4995C59 49.8393 58.8015 49.2679 58.406 48.7859Z" fill="white"/>
</svg>
