<svg width="251" height="224" viewBox="0 0 251 224" fill="none" xmlns="http://www.w3.org/2000/svg">
<g clip-path="url(#clip0)">
<path d="M227.978 62.1677C229.887 62.1677 231.436 61.4385 231.436 60.539C231.436 59.6395 229.887 58.9102 227.978 58.9102C226.068 58.9102 224.52 59.6395 224.52 60.539C224.52 61.4385 226.068 62.1677 227.978 62.1677Z" fill="#388794"/>
<path d="M244.091 35.0832H154.452C150.657 35.0832 147.551 38.0201 147.551 41.6025V65.1978H161.354V47.1061H237.2V66.662H172.131V84.5913H237.198V87.8553H172.131V104.156H237.198V107.411H172.131V181.461H147.567V191.576C147.567 195.156 150.673 198.095 154.461 198.095H244.107C247.892 198.095 251 195.158 251 191.576V41.5939C250.984 38.0201 247.879 35.0832 244.091 35.0832ZM199.26 154.99C193.555 154.99 188.915 150.619 188.915 145.206C188.915 139.811 193.546 135.423 199.26 135.423C204.971 135.423 209.611 139.794 209.611 145.206C209.611 150.619 204.971 154.99 199.26 154.99Z" fill="#388794"/>
<path d="M158.919 72.9561H5C2.23858 72.9561 0 75.1947 0 77.9561V168.725C0 171.486 2.23857 173.725 4.99999 173.725H158.919C161.68 173.725 163.919 171.486 163.919 168.725V77.9561C163.919 75.1947 161.68 72.9561 158.919 72.9561Z" fill="#388794"/>
<path d="M57.3717 182.609L40.9791 198.111H122.94L106.547 182.609H57.3717Z" fill="#388794"/>
</g>
<defs>
<clipPath id="clip0">
<rect width="251" height="224" fill="white"/>
</clipPath>
</defs>
</svg>
