<svg width="39" height="34" viewBox="0 0 39 34" fill="none" xmlns="http://www.w3.org/2000/svg">
<path d="M35.0374 23.213H3.98898L1.2666 26.8181H37.4391L35.0374 23.213Z" fill="#5580A6"/>
<path d="M32.8317 4.83301H6.19443C5.90484 4.83299 5.61808 4.8827 5.35053 4.97931C5.08297 5.07592 4.83987 5.21752 4.63509 5.39604C4.43032 5.57457 4.26789 5.7865 4.15708 6.01975C4.04626 6.25301 3.98924 6.503 3.98926 6.75547V23.2129H35.0377V6.75547C35.0375 6.24552 34.8051 5.75651 34.3914 5.39598C33.9777 5.03546 33.4167 4.83295 32.8317 4.83301Z" fill="#56768B"/>
<path d="M6.14648 6.75549H9.19336V21.3994H6.14648V6.75549Z" fill="#EDE9D6"/>
<path d="M6.14648 6.75549H32.8798V21.3994H6.14648V6.75549Z" fill="#FFFCE6"/>
<path d="M37.7333 10.5804V17.3213C37.7335 17.4515 37.708 17.5806 37.6579 17.7032L37.6564 17.7025L33.0374 13.7932L37.7333 10.5804Z" fill="#E5C06D"/>
<path d="M37.6564 17.7026L33.0373 13.7933L27.6245 13.8125L22.8821 17.7026C22.9722 17.9236 23.1387 18.1148 23.3586 18.25C23.5784 18.3852 23.8409 18.4578 24.11 18.4576H36.43C36.6989 18.4576 36.9613 18.3851 37.1811 18.2501C37.4009 18.115 37.5674 17.924 37.6579 17.7033L37.6564 17.7026Z" fill="#FAD076"/>
<path d="M22.8066 10.5812L27.6245 13.8125L22.8821 17.7026C22.832 17.5802 22.8065 17.4513 22.8066 17.3214V10.5812Z" fill="#E5C06D"/>
<path d="M36.43 9.17804H24.1099C23.9387 9.17806 23.7692 9.20748 23.611 9.26463C23.4529 9.32178 23.3092 9.40553 23.1881 9.5111C23.0671 9.61668 22.9711 9.742 22.9057 9.87992C22.8402 10.0178 22.8066 10.1657 22.8066 10.3149V10.5812L29.3323 14.9574C29.6186 15.152 29.9713 15.2577 30.3343 15.2577C30.6974 15.2577 31.0501 15.152 31.3364 14.9574L37.7333 10.5805V10.3149C37.7334 10.1657 37.6997 10.0178 37.6343 9.87992C37.5688 9.742 37.4728 9.61668 37.3518 9.5111C37.2308 9.40553 37.0871 9.32178 36.9289 9.26463C36.7707 9.20748 36.6012 9.17806 36.43 9.17804Z" fill="#EB565B"/>
<path d="M23.8005 26.8182H37.4391C37.4391 27.4412 37.1552 28.0386 36.65 28.4791C36.1447 28.9195 35.4594 29.167 34.7449 29.167H3.9608C3.60699 29.167 3.25664 29.1063 2.92976 28.9882C2.60288 28.8702 2.30587 28.6972 2.05569 28.4791C1.80551 28.261 1.60706 28.0021 1.47166 27.7171C1.33627 27.4321 1.26659 27.1267 1.2666 26.8182H23.8005Z" fill="#56768B"/>
<path d="M23.2126 24.8419L23.8006 26.8182H14.4924L15.0812 24.8419H23.2126Z" fill="#CFE2FC"/>
<path d="M6.14648 6.75549H8.43164V21.3994H6.14648V6.75549Z" fill="#E8E3CA"/>
<path d="M7.92188 13.1143C7.80066 13.1143 7.68442 13.1562 7.59871 13.231C7.513 13.3057 7.46484 13.407 7.46484 13.5127V18.3931C7.46484 18.4988 7.513 18.6001 7.59871 18.6748C7.68442 18.7496 7.80066 18.7915 7.92188 18.7915C8.04309 18.7915 8.15933 18.7496 8.24504 18.6748C8.33075 18.6001 8.37891 18.4988 8.37891 18.3931V13.5127C8.37891 13.407 8.33075 13.3057 8.24504 13.231C8.15933 13.1562 8.04309 13.1143 7.92188 13.1143Z" fill="#284268"/>
<path d="M7.92188 9.61224C7.80066 9.61224 7.68442 9.65422 7.59871 9.72894C7.513 9.80366 7.46484 9.90501 7.46484 10.0107V12.0436C7.46484 12.1493 7.513 12.2507 7.59871 12.3254C7.68442 12.4001 7.80066 12.4421 7.92188 12.4421C8.04309 12.4421 8.15933 12.4001 8.24504 12.3254C8.33075 12.2507 8.37891 12.1493 8.37891 12.0436V10.0107C8.37891 9.90501 8.33075 9.80366 8.24504 9.72894C8.15933 9.65422 8.04309 9.61224 7.92188 9.61224Z" fill="#284268"/>
<path d="M7.92188 7.75287C7.80066 7.75287 7.68442 7.79485 7.59871 7.86957C7.513 7.94429 7.46484 8.04563 7.46484 8.1513V8.52411C7.46484 8.62978 7.513 8.73112 7.59871 8.80584C7.68442 8.88057 7.80066 8.92254 7.92188 8.92254C8.04309 8.92254 8.15933 8.88057 8.24504 8.80584C8.33075 8.73112 8.37891 8.62978 8.37891 8.52411V8.1513C8.37891 8.04563 8.33075 7.94429 8.24504 7.86957C8.15933 7.79485 8.04309 7.75287 7.92188 7.75287Z" fill="#284268"/>
<path d="M18.9073 9.75204C18.8649 9.71503 18.8145 9.68568 18.759 9.66565C18.7036 9.64562 18.6441 9.63531 18.5841 9.63531C18.5241 9.63531 18.4647 9.64562 18.4092 9.66565C18.3538 9.68568 18.3034 9.71503 18.2609 9.75204C18.2186 9.78805 18.1849 9.83108 18.1619 9.87861C18.1389 9.92614 18.1271 9.9772 18.1271 10.0288C18.1271 10.0804 18.1389 10.1314 18.1619 10.179C18.1849 10.2265 18.2186 10.2695 18.2609 10.3055L19.2482 11.1563H17.5496C17.4283 11.1563 17.3121 11.1982 17.2264 11.273C17.1407 11.3477 17.0925 11.449 17.0925 11.5547C17.0925 11.6604 17.1407 11.7617 17.2264 11.8364C17.3121 11.9112 17.4283 11.9531 17.5496 11.9531H19.2482L18.2609 12.8237C18.1752 12.8994 18.1271 13.0016 18.1271 13.108C18.1271 13.2144 18.1752 13.3165 18.2609 13.3922C18.303 13.4296 18.3531 13.4594 18.4084 13.4799C18.4637 13.5003 18.5232 13.511 18.5832 13.5114C18.6433 13.5117 18.7029 13.5017 18.7585 13.4819C18.8141 13.4621 18.8647 13.4329 18.9073 13.396L20.6745 11.8557C20.717 11.8188 20.7506 11.7749 20.7736 11.7266C20.7966 11.6783 20.8084 11.6265 20.8084 11.5742C20.8084 11.5219 20.7966 11.4702 20.7736 11.4219C20.7506 11.3736 20.717 11.3297 20.6745 11.2927L18.9073 9.75204Z" fill="#284268"/>
<path d="M12.5507 11.1562H12.4727C12.3514 11.1562 12.2352 11.1982 12.1495 11.2729C12.0638 11.3477 12.0156 11.449 12.0156 11.5547C12.0156 11.6604 12.0638 11.7617 12.1495 11.8364C12.2352 11.9111 12.3514 11.9531 12.4727 11.9531H12.5507C12.6719 11.9531 12.7881 11.9111 12.8738 11.8364C12.9595 11.7617 13.0077 11.6604 13.0077 11.5547C13.0077 11.449 12.9595 11.3477 12.8738 11.2729C12.7881 11.1982 12.6719 11.1562 12.5507 11.1562Z" fill="#284268"/>
<path d="M13.9959 11.1562H13.9448C13.8236 11.1562 13.7074 11.1982 13.6217 11.2729C13.5359 11.3477 13.4878 11.449 13.4878 11.5547C13.4878 11.6604 13.5359 11.7617 13.6217 11.8364C13.7074 11.9111 13.8236 11.9531 13.9448 11.9531H13.9959C14.1171 11.9531 14.2334 11.9111 14.3191 11.8364C14.4048 11.7617 14.453 11.6604 14.453 11.5547C14.453 11.449 14.4048 11.3477 14.3191 11.2729C14.2334 11.1982 14.1171 11.1562 13.9959 11.1562Z" fill="#284268"/>
<path d="M16.0173 11.1562H15.9934C15.8722 11.1562 15.7559 11.1982 15.6702 11.2729C15.5845 11.3477 15.5364 11.449 15.5364 11.5547C15.5364 11.6604 15.5845 11.7617 15.6702 11.8364C15.7559 11.9111 15.8722 11.9531 15.9934 11.9531H16.0173C16.1385 11.9531 16.2547 11.9111 16.3404 11.8364C16.4261 11.7617 16.4743 11.6604 16.4743 11.5547C16.4743 11.449 16.4261 11.3477 16.3404 11.2729C16.2547 11.1982 16.1385 11.1562 16.0173 11.1562Z" fill="#284268"/>
<path d="M18.9073 14.2387C18.8649 14.2017 18.8145 14.1724 18.759 14.1523C18.7036 14.1323 18.6441 14.122 18.5841 14.122C18.5241 14.122 18.4647 14.1323 18.4092 14.1523C18.3538 14.1724 18.3034 14.2017 18.2609 14.2387C18.1752 14.3143 18.1271 14.4164 18.1271 14.5227C18.1271 14.6291 18.1752 14.7311 18.2609 14.8067L19.2482 15.6719H17.5496C17.4283 15.6719 17.3121 15.7139 17.2264 15.7886C17.1407 15.8633 17.0925 15.9647 17.0925 16.0704C17.0925 16.176 17.1407 16.2774 17.2264 16.3521C17.3121 16.4268 17.4283 16.4688 17.5496 16.4688H19.2482L18.2609 17.325C18.1758 17.3997 18.1282 17.5008 18.1287 17.6061C18.1291 17.7115 18.1775 17.8123 18.2632 17.8865C18.3489 17.9607 18.4649 18.0022 18.5857 18.0018C18.7065 18.0014 18.8222 17.9592 18.9073 17.8845L20.6745 16.3434C20.717 16.3064 20.7507 16.2625 20.7737 16.2141C20.7967 16.1657 20.8085 16.1139 20.8085 16.0616C20.8085 16.0092 20.7967 15.9574 20.7737 15.909C20.7507 15.8606 20.717 15.8167 20.6745 15.7797L18.9073 14.2387Z" fill="#284268"/>
<path d="M12.5507 15.6719H12.4727C12.3514 15.6719 12.2352 15.7139 12.1495 15.7886C12.0638 15.8633 12.0156 15.9646 12.0156 16.0703C12.0156 16.176 12.0638 16.2773 12.1495 16.3521C12.2352 16.4268 12.3514 16.4688 12.4727 16.4688H12.5507C12.6719 16.4688 12.7881 16.4268 12.8738 16.3521C12.9595 16.2773 13.0077 16.176 13.0077 16.0703C13.0077 15.9646 12.9595 15.8633 12.8738 15.7886C12.7881 15.7139 12.6719 15.6719 12.5507 15.6719Z" fill="#284268"/>
<path d="M13.9959 15.6719H13.9448C13.8236 15.6719 13.7074 15.7139 13.6217 15.7886C13.5359 15.8633 13.4878 15.9646 13.4878 16.0703C13.4878 16.176 13.5359 16.2773 13.6217 16.3521C13.7074 16.4268 13.8236 16.4688 13.9448 16.4688H13.9959C14.1171 16.4688 14.2334 16.4268 14.3191 16.3521C14.4048 16.2773 14.453 16.176 14.453 16.0703C14.453 15.9646 14.4048 15.8633 14.3191 15.7886C14.2334 15.7139 14.1171 15.6719 13.9959 15.6719Z" fill="#284268"/>
<path d="M16.0173 15.6719H15.9934C15.8722 15.6719 15.7559 15.7139 15.6702 15.7886C15.5845 15.8633 15.5364 15.9646 15.5364 16.0703C15.5364 16.176 15.5845 16.2773 15.6702 16.3521C15.7559 16.4268 15.8722 16.4688 15.9934 16.4688H16.0173C16.1385 16.4688 16.2547 16.4268 16.3404 16.3521C16.4261 16.2773 16.4743 16.176 16.4743 16.0703C16.4743 15.9646 16.4261 15.8633 16.3404 15.7886C16.2547 15.7139 16.1385 15.6719 16.0173 15.6719Z" fill="#284268"/>
<path d="M36.3854 8.76565H35.4961V6.75586C35.4952 6.45181 35.4255 6.1509 35.2911 5.87035C35.1566 5.58981 34.96 5.33513 34.7125 5.12088C34.465 4.90664 34.1715 4.73705 33.8488 4.6218C33.526 4.50655 33.1804 4.44791 32.8316 4.44924H6.19463C4.72642 4.44924 3.50394 5.47588 3.50394 6.75586V23.0937L0.874029 26.5947C0.873648 26.5951 0.880351 26.5956 0.87997 26.596L0.881341 26.5988H0.88317C0.834254 26.6612 0.808245 26.735 0.808597 26.8105C0.810071 27.5383 1.14296 28.2358 1.73409 28.7496C2.32522 29.2634 3.1262 29.5516 3.96097 29.5508H34.7448C35.5795 29.5516 36.3805 29.2635 36.9715 28.7496C37.5625 28.2358 37.8952 27.5383 37.8965 26.8106C37.8967 26.7415 37.8754 26.6737 37.8348 26.6143L37.8356 26.6178L35.4961 23.1057V18.8594H36.4298C36.8893 18.8594 37.3299 18.7003 37.6548 18.4171C37.9796 18.1338 38.1621 17.7497 38.1621 17.3492V10.3146C38.1608 9.90414 37.9732 9.51085 37.6402 9.22063C37.3073 8.93041 36.8562 8.76684 36.3854 8.76565ZM34.7448 28.7539H3.96097C3.45102 28.7545 2.95608 28.6035 2.55783 28.3258C2.15957 28.0481 1.8818 27.6604 1.77034 27.2266H36.9358C36.8243 27.6605 36.5465 28.0482 36.1482 28.3259C35.7499 28.6036 35.2548 28.7546 34.7448 28.7539ZM15.0837 26.4297L15.4346 25.2344H22.8592L23.2102 26.4297H15.0837ZM36.6453 26.4297H24.1541L23.6548 24.7439C23.6298 24.6576 23.5729 24.5809 23.493 24.5255C23.413 24.4701 23.3144 24.4392 23.2123 24.4375H15.0811C14.979 24.4392 14.8804 24.4701 14.8004 24.5255C14.7205 24.5809 14.6636 24.6576 14.6387 24.7439L14.1394 26.4297H2.11464L4.23519 23.6406H34.774L36.6453 26.4297ZM36.3979 18.0625H29.0215C28.9003 18.0625 28.7841 18.1045 28.6983 18.1792C28.6126 18.2539 28.5645 18.3553 28.5645 18.461C28.5645 18.5666 28.6126 18.668 28.6983 18.7427C28.7841 18.8174 28.9003 18.8594 29.0215 18.8594H32.4493V20.9844H6.62699V7.1719H8.37894C8.50015 7.1719 8.6164 7.12992 8.70211 7.0552C8.78782 6.98048 8.83597 6.87913 8.83597 6.77346C8.83597 6.66779 8.78782 6.56644 8.70211 6.49172C8.6164 6.417 8.50015 6.37502 8.37894 6.37502H6.14977C6.03391 6.37502 5.9228 6.41515 5.84087 6.48657C5.75895 6.55799 5.71292 6.65486 5.71292 6.75586V21.3992C5.71292 21.5006 5.75909 21.5977 5.84127 21.6694C5.92346 21.741 6.03492 21.7813 6.15114 21.7813H32.8799C33.008 21.781 33.1307 21.7365 33.2213 21.6575C33.3119 21.5786 33.363 21.4715 33.3633 21.3599V18.8594H34.5821V22.8438H4.418V6.75586C4.418 5.91529 5.23045 5.24612 6.19463 5.24612H32.8319C33.0607 5.24471 33.2875 5.28268 33.4994 5.35786C33.7112 5.43303 33.904 5.54393 34.0666 5.6842C34.2292 5.82446 34.3584 5.99133 34.4469 6.17523C34.5353 6.35913 34.5813 6.55645 34.5821 6.75586V8.76565H33.3633V6.75586C33.3633 6.65486 33.3173 6.55799 33.2354 6.48657C33.1534 6.41515 33.0423 6.37502 32.9265 6.37502H11.4258C11.3046 6.37502 11.1884 6.417 11.1026 6.49172C11.0169 6.56644 10.9688 6.66779 10.9688 6.77346C10.9688 6.87913 11.0169 6.98048 11.1026 7.0552C11.1884 7.12992 11.3046 7.1719 11.4258 7.1719H32.4493V8.76565H24.1101C23.6353 8.76686 23.1804 8.93181 22.8447 9.22448C22.509 9.51716 22.3198 9.91376 22.3184 10.3277V17.3214C22.3198 17.7289 22.5061 18.1194 22.8366 18.4076C23.1672 18.6958 23.6151 18.8582 24.0826 18.8594H25.9746C26.0959 18.8594 26.2121 18.8174 26.2978 18.7427C26.3835 18.668 26.4317 18.5666 26.4317 18.461C26.4317 18.3553 26.3835 18.2539 26.2978 18.1792C26.2121 18.1045 26.0959 18.0625 25.9746 18.0625H24.1101C23.9827 18.0624 23.8568 18.038 23.7413 17.9911C23.6258 17.9441 23.5234 17.8758 23.4413 17.7909L27.6548 14.3349L29.0515 15.2716C29.4182 15.5212 29.87 15.6567 30.3352 15.6566C30.8004 15.6564 31.2521 15.5206 31.6185 15.2708L33.0055 14.3218L37.0754 17.766C36.9965 17.8577 36.8943 17.9323 36.7767 17.9838C36.6592 18.0352 36.5295 18.0622 36.3979 18.0625ZM23.2325 11.3693L26.9209 13.8428L23.2325 16.868V11.3693ZM37.2481 16.8013L33.7315 13.8253L37.2481 11.419V16.8013ZM37.2481 10.4064L31.0553 14.6435C30.8489 14.7839 30.5945 14.8601 30.3327 14.8598C30.0709 14.8595 29.8168 14.7828 29.6108 14.6419L23.2325 10.364V10.3146C23.2331 10.1153 23.3242 9.92434 23.4859 9.78343C23.6475 9.64252 23.8665 9.5631 24.0951 9.56252H36.4298C36.6469 9.56252 36.855 9.63768 37.0084 9.77145C37.1619 9.90523 37.2481 10.0867 37.2481 10.2759V10.4064Z" fill="#284268"/>
</svg>
